<svg xmlns="http://www.w3.org/2000/svg" viewBox="0 0 512 512" fill="none">
  <defs>
    <!-- Main gradient -->
    <linearGradient id="mainGradient" x1="0%" y1="0%" x2="100%" y2="100%">
      <stop offset="0%" stop-color="#06b6d4"/>
      <stop offset="50%" stop-color="#7c3aed"/>
      <stop offset="100%" stop-color="#ec4899"/>
    </linearGradient>
    <!-- Secondary gradient for depth -->
    <linearGradient id="secondaryGradient" x1="100%" y1="0%" x2="0%" y2="100%">
      <stop offset="0%" stop-color="#22d3ee"/>
      <stop offset="100%" stop-color="#a855f7"/>
    </linearGradient>
    <!-- Glow effect -->
    <filter id="glow" x="-50%" y="-50%" width="200%" height="200%">
      <feGaussianBlur stdDeviation="8" result="blur"/>
      <feComposite in="SourceGraphic" in2="blur" operator="over"/>
    </filter>
    <!-- Shadow -->
    <filter id="shadow" x="-20%" y="-20%" width="140%" height="140%">
      <feDropShadow dx="0" dy="4" stdDeviation="8" flood-color="#7c3aed" flood-opacity="0.3"/>
    </filter>
  </defs>

  <!-- Background circle with gradient -->
  <circle cx="256" cy="256" r="240" fill="url(#mainGradient)" filter="url(#shadow)"/>

  <!-- Inner circle for depth -->
  <circle cx="256" cy="256" r="200" fill="url(#secondaryGradient)" opacity="0.3"/>

  <!-- Letter C - stylized -->
  <path d="M320 180c-70.7-40.8-160-11.8-160 76s89.3 116.8 160 76"
        stroke="white"
        stroke-width="40"
        stroke-linecap="round"
        fill="none"
        filter="url(#glow)"/>

  <!-- AI sparkle elements -->
  <g fill="white" opacity="0.9">
    <!-- Top right sparkle -->
    <path d="M380 120l8-24 8 24 24 8-24 8-8 24-8-24-24-8z"/>
    <!-- Bottom left sparkle -->
    <path d="M100 360l6-18 6 18 18 6-18 6-6 18-6-18-18-6z"/>
    <!-- Small accent sparkle -->
    <circle cx="420" cy="200" r="8"/>
  </g>

  <!-- Synergy connection dots -->
  <g fill="white" opacity="0.7">
    <circle cx="180" cy="160" r="12"/>
    <circle cx="340" cy="340" r="12"/>
    <circle cx="160" cy="320" r="8"/>
  </g>
</svg>
